<mxfile host="app.diagrams.net" modified="2023-06-16T03:06:03.310Z" agent="Mozilla/5.0 (Windows NT 10.0; Win64; x64) AppleWebKit/537.36 (KHTML, like Gecko) Chrome/114.0.0.0 Safari/537.36" etag="LRn7Qx81KoXDYf3D3KnI" version="21.3.8" type="device">
  <diagram name="Page-1" id="vmiBj-H5-NR03Qyo1k30">
    <mxGraphModel dx="1613" dy="676" grid="1" gridSize="10" guides="1" tooltips="1" connect="1" arrows="1" fold="1" page="1" pageScale="1" pageWidth="850" pageHeight="1100" math="0" shadow="0">
      <root>
        <mxCell id="0" />
        <mxCell id="1" parent="0" />
        <mxCell id="zMroYj8vIBsiFWkHlfIG-9" value="" style="edgeStyle=orthogonalEdgeStyle;rounded=0;orthogonalLoop=1;jettySize=auto;html=1;" edge="1" parent="1" source="zMroYj8vIBsiFWkHlfIG-1" target="zMroYj8vIBsiFWkHlfIG-2">
          <mxGeometry relative="1" as="geometry" />
        </mxCell>
        <mxCell id="zMroYj8vIBsiFWkHlfIG-1" value="BẮT ĐẦU" style="ellipse;whiteSpace=wrap;html=1;" vertex="1" parent="1">
          <mxGeometry x="340" y="40" width="120" height="80" as="geometry" />
        </mxCell>
        <mxCell id="zMroYj8vIBsiFWkHlfIG-10" value="" style="edgeStyle=orthogonalEdgeStyle;rounded=0;orthogonalLoop=1;jettySize=auto;html=1;" edge="1" parent="1" source="zMroYj8vIBsiFWkHlfIG-2" target="zMroYj8vIBsiFWkHlfIG-4">
          <mxGeometry relative="1" as="geometry" />
        </mxCell>
        <mxCell id="zMroYj8vIBsiFWkHlfIG-2" value="FIBO2[22] = {&#39;0&#39;, ..., &#39;0&#39;}&lt;br&gt;FIBO1[22] = {&#39;0&#39;, ..., {&#39;1&#39;}&lt;br&gt;FIBO[22] = {&#39;0&#39;, ..., &#39;0&#39;}" style="rounded=0;whiteSpace=wrap;html=1;" vertex="1" parent="1">
          <mxGeometry x="330" y="150" width="140" height="60" as="geometry" />
        </mxCell>
        <mxCell id="zMroYj8vIBsiFWkHlfIG-17" value="" style="edgeStyle=orthogonalEdgeStyle;rounded=0;orthogonalLoop=1;jettySize=auto;html=1;" edge="1" parent="1" source="zMroYj8vIBsiFWkHlfIG-3" target="zMroYj8vIBsiFWkHlfIG-16">
          <mxGeometry relative="1" as="geometry" />
        </mxCell>
        <mxCell id="zMroYj8vIBsiFWkHlfIG-3" value="CX == 0 ?" style="rhombus;whiteSpace=wrap;html=1;" vertex="1" parent="1">
          <mxGeometry x="330" y="640" width="140" height="80" as="geometry" />
        </mxCell>
        <mxCell id="zMroYj8vIBsiFWkHlfIG-11" value="" style="edgeStyle=orthogonalEdgeStyle;rounded=0;orthogonalLoop=1;jettySize=auto;html=1;" edge="1" parent="1" source="zMroYj8vIBsiFWkHlfIG-4" target="zMroYj8vIBsiFWkHlfIG-5">
          <mxGeometry relative="1" as="geometry" />
        </mxCell>
        <mxCell id="zMroYj8vIBsiFWkHlfIG-4" value="CX = 22&lt;br&gt;CARRY = 0" style="rounded=0;whiteSpace=wrap;html=1;" vertex="1" parent="1">
          <mxGeometry x="330" y="240" width="140" height="60" as="geometry" />
        </mxCell>
        <mxCell id="zMroYj8vIBsiFWkHlfIG-12" value="" style="edgeStyle=orthogonalEdgeStyle;rounded=0;orthogonalLoop=1;jettySize=auto;html=1;" edge="1" parent="1" source="zMroYj8vIBsiFWkHlfIG-5" target="zMroYj8vIBsiFWkHlfIG-6">
          <mxGeometry relative="1" as="geometry" />
        </mxCell>
        <mxCell id="zMroYj8vIBsiFWkHlfIG-5" value="CX = CX - 1" style="rounded=0;whiteSpace=wrap;html=1;" vertex="1" parent="1">
          <mxGeometry x="330" y="340" width="140" height="60" as="geometry" />
        </mxCell>
        <mxCell id="zMroYj8vIBsiFWkHlfIG-13" value="" style="edgeStyle=orthogonalEdgeStyle;rounded=0;orthogonalLoop=1;jettySize=auto;html=1;" edge="1" parent="1" source="zMroYj8vIBsiFWkHlfIG-6" target="zMroYj8vIBsiFWkHlfIG-7">
          <mxGeometry relative="1" as="geometry" />
        </mxCell>
        <mxCell id="zMroYj8vIBsiFWkHlfIG-6" value="fibo2 = FIBO2[CX] - 30h&lt;br&gt;fibo1 = FIBO1[CX] - 30h" style="rounded=0;whiteSpace=wrap;html=1;" vertex="1" parent="1">
          <mxGeometry x="330" y="440" width="140" height="60" as="geometry" />
        </mxCell>
        <mxCell id="zMroYj8vIBsiFWkHlfIG-14" value="" style="edgeStyle=orthogonalEdgeStyle;rounded=0;orthogonalLoop=1;jettySize=auto;html=1;" edge="1" parent="1" source="zMroYj8vIBsiFWkHlfIG-7" target="zMroYj8vIBsiFWkHlfIG-3">
          <mxGeometry relative="1" as="geometry" />
        </mxCell>
        <mxCell id="zMroYj8vIBsiFWkHlfIG-7" value="FIBO[CX] = (fibo2 + fibo1 + CARRY) % 10 + 30h&lt;br&gt;CARRY = (fibo2 + fibo1) / 10" style="rounded=0;whiteSpace=wrap;html=1;" vertex="1" parent="1">
          <mxGeometry x="265" y="540" width="270" height="60" as="geometry" />
        </mxCell>
        <mxCell id="zMroYj8vIBsiFWkHlfIG-8" value="KẾT THÚC" style="ellipse;whiteSpace=wrap;html=1;" vertex="1" parent="1">
          <mxGeometry x="580" y="520" width="120" height="80" as="geometry" />
        </mxCell>
        <mxCell id="zMroYj8vIBsiFWkHlfIG-15" value="" style="endArrow=classic;html=1;rounded=0;exitX=0;exitY=0.5;exitDx=0;exitDy=0;" edge="1" parent="1" source="zMroYj8vIBsiFWkHlfIG-3">
          <mxGeometry width="50" height="50" relative="1" as="geometry">
            <mxPoint x="400" y="560" as="sourcePoint" />
            <mxPoint x="400" y="318.4000244140625" as="targetPoint" />
            <Array as="points">
              <mxPoint x="200" y="680" />
              <mxPoint x="200" y="318" />
            </Array>
          </mxGeometry>
        </mxCell>
        <mxCell id="zMroYj8vIBsiFWkHlfIG-18" value="" style="edgeStyle=orthogonalEdgeStyle;rounded=0;orthogonalLoop=1;jettySize=auto;html=1;" edge="1" parent="1" source="zMroYj8vIBsiFWkHlfIG-16" target="zMroYj8vIBsiFWkHlfIG-8">
          <mxGeometry relative="1" as="geometry" />
        </mxCell>
        <mxCell id="zMroYj8vIBsiFWkHlfIG-16" value="FIBO2[22] = FIBO1[22]&lt;br&gt;FIBO1[22] = FIBO[2]" style="rounded=0;whiteSpace=wrap;html=1;" vertex="1" parent="1">
          <mxGeometry x="560" y="650" width="160" height="60" as="geometry" />
        </mxCell>
        <mxCell id="zMroYj8vIBsiFWkHlfIG-19" value="Chuyển kiểu char về kiểu int" style="text;html=1;strokeColor=none;fillColor=none;align=center;verticalAlign=middle;whiteSpace=wrap;rounded=0;" vertex="1" parent="1">
          <mxGeometry x="540" y="300" width="90" height="30" as="geometry" />
        </mxCell>
        <mxCell id="zMroYj8vIBsiFWkHlfIG-20" value="" style="endArrow=none;dashed=1;html=1;dashPattern=1 3;strokeWidth=2;rounded=0;entryX=0;entryY=1;entryDx=0;entryDy=0;exitX=1;exitY=0.5;exitDx=0;exitDy=0;" edge="1" parent="1" source="zMroYj8vIBsiFWkHlfIG-6" target="zMroYj8vIBsiFWkHlfIG-19">
          <mxGeometry width="50" height="50" relative="1" as="geometry">
            <mxPoint x="400" y="510" as="sourcePoint" />
            <mxPoint x="450" y="460" as="targetPoint" />
          </mxGeometry>
        </mxCell>
        <mxCell id="zMroYj8vIBsiFWkHlfIG-21" value="" style="endArrow=none;dashed=1;html=1;dashPattern=1 3;strokeWidth=2;rounded=0;exitX=0.75;exitY=0;exitDx=0;exitDy=0;" edge="1" parent="1" source="zMroYj8vIBsiFWkHlfIG-7" target="zMroYj8vIBsiFWkHlfIG-22">
          <mxGeometry width="50" height="50" relative="1" as="geometry">
            <mxPoint x="400" y="510" as="sourcePoint" />
            <mxPoint x="600" y="440" as="targetPoint" />
          </mxGeometry>
        </mxCell>
        <mxCell id="zMroYj8vIBsiFWkHlfIG-22" value="Cộng có nhớ và chia dư, sau đó chuyển thành kiểu char" style="text;html=1;strokeColor=none;fillColor=none;align=center;verticalAlign=middle;whiteSpace=wrap;rounded=0;" vertex="1" parent="1">
          <mxGeometry x="535" y="390" width="110" height="30" as="geometry" />
        </mxCell>
        <mxCell id="zMroYj8vIBsiFWkHlfIG-23" value="Gán các phần tử tương ứng trong hai mảng" style="text;html=1;strokeColor=none;fillColor=none;align=center;verticalAlign=middle;whiteSpace=wrap;rounded=0;" vertex="1" parent="1">
          <mxGeometry x="710" y="380" width="90" height="30" as="geometry" />
        </mxCell>
        <mxCell id="zMroYj8vIBsiFWkHlfIG-24" value="" style="endArrow=none;dashed=1;html=1;dashPattern=1 3;strokeWidth=2;rounded=0;entryX=0.25;entryY=1;entryDx=0;entryDy=0;exitX=1;exitY=0.5;exitDx=0;exitDy=0;" edge="1" parent="1" source="zMroYj8vIBsiFWkHlfIG-16" target="zMroYj8vIBsiFWkHlfIG-23">
          <mxGeometry width="50" height="50" relative="1" as="geometry">
            <mxPoint x="400" y="530" as="sourcePoint" />
            <mxPoint x="450" y="480" as="targetPoint" />
          </mxGeometry>
        </mxCell>
        <mxCell id="zMroYj8vIBsiFWkHlfIG-25" value="S" style="text;html=1;strokeColor=none;fillColor=none;align=center;verticalAlign=middle;whiteSpace=wrap;rounded=0;" vertex="1" parent="1">
          <mxGeometry x="265" y="660" width="60" height="20" as="geometry" />
        </mxCell>
        <mxCell id="zMroYj8vIBsiFWkHlfIG-26" value="Đ" style="text;html=1;strokeColor=none;fillColor=none;align=center;verticalAlign=middle;whiteSpace=wrap;rounded=0;" vertex="1" parent="1">
          <mxGeometry x="475" y="660" width="60" height="20" as="geometry" />
        </mxCell>
        <mxCell id="zMroYj8vIBsiFWkHlfIG-27" value="" style="endArrow=none;dashed=1;html=1;dashPattern=1 3;strokeWidth=2;rounded=0;exitX=1;exitY=0.5;exitDx=0;exitDy=0;" edge="1" parent="1" source="zMroYj8vIBsiFWkHlfIG-2" target="zMroYj8vIBsiFWkHlfIG-28">
          <mxGeometry width="50" height="50" relative="1" as="geometry">
            <mxPoint x="520" y="420" as="sourcePoint" />
            <mxPoint x="560" y="180" as="targetPoint" />
          </mxGeometry>
        </mxCell>
        <mxCell id="zMroYj8vIBsiFWkHlfIG-28" value="Ứng với số thứ nhất = 0, số thứ 2 = 1" style="text;html=1;strokeColor=none;fillColor=none;align=center;verticalAlign=middle;whiteSpace=wrap;rounded=0;" vertex="1" parent="1">
          <mxGeometry x="580" y="165" width="110" height="30" as="geometry" />
        </mxCell>
      </root>
    </mxGraphModel>
  </diagram>
</mxfile>
